<?xml version="1.0" standalone="no"?>
<!DOCTYPE svg PUBLIC "-//W3C//DTD SVG 20010904//EN"
 "http://www.w3.org/TR/2001/REC-SVG-20010904/DTD/svg10.dtd">
<svg version="1.0" xmlns="http://www.w3.org/2000/svg"
 width="260.000000pt" height="260.000000pt" viewBox="0 0 260.000000 260.000000"
 preserveAspectRatio="xMidYMid meet">
<metadata>
Created by potrace 1.14, written by Peter Selinger 2001-2017
</metadata>
<g transform="translate(0.000000,260.000000) scale(0.100000,-0.100000)"
fill="#000000" stroke="none">
<path d="M10 2315 c0 -3 26 -115 80 -346 12 -48 22 -95 25 -105 6 -31 125
-543 145 -629 18 -76 98 -423 105 -455 2 -8 17 -76 35 -150 18 -74 33 -142 35
-150 2 -8 11 -46 20 -85 9 -38 18 -77 19 -85 3 -13 38 -15 237 -18 l234 -2
164 527 c90 290 171 552 179 581 8 29 18 49 22 45 4 -4 51 -159 104 -343 53
-184 127 -441 164 -570 l68 -235 234 0 234 0 73 315 c40 173 84 362 97 420 14
58 27 116 29 130 3 14 10 45 17 70 7 25 14 54 16 65 6 32 11 52 48 215 20 85
38 164 41 175 5 26 54 237 104 455 23 96 41 175 41 176 0 0 -111 0 -247 0
l-247 -1 -17 -70 c-9 -38 -28 -122 -43 -185 -167 -739 -216 -954 -220 -957 -3
-3 -18 49 -67 227 -16 61 -51 182 -84 295 -8 28 -53 187 -100 355 -47 168 -88
312 -91 321 -4 14 -31 16 -209 16 -113 0 -205 -2 -206 -6 0 -3 -2 -71 -3 -151
-3 -115 -8 -159 -25 -215 -30 -99 -60 -199 -130 -440 -54 -183 -106 -359 -116
-390 -1 -5 -5 -3 -8 5 -5 13 -51 217 -63 280 -3 14 -14 63 -24 110 -11 47 -35
159 -55 250 -20 91 -55 253 -78 360 l-42 195 -248 1 c-136 1 -247 0 -247 -1z"/>
</g>
</svg>
